<svg width="32" height="32" viewBox="0 0 32 32" fill="none" xmlns="http://www.w3.org/2000/svg">
<rect x="0.400011" y="0.400011" width="31.196" height="31.2" rx="15.598" fill="#C5E8EE"/>
<rect x="0.400011" y="0.400011" width="31.196" height="31.2" rx="15.598" stroke="#06B2D3" stroke-width="0.800023"/>
<path d="M15.1956 11.2003C16.0792 11.2003 16.7956 10.4839 16.7956 9.60026C16.7956 8.71658 16.0792 8.00021 15.1956 8.00021C14.3119 8.00021 13.5955 8.71658 13.5955 9.60026C13.5955 10.4839 14.3119 11.2003 15.1956 11.2003Z" stroke="#06B2D3" stroke-width="1.60005" stroke-linecap="round" stroke-linejoin="round"/>
<path d="M20.7957 14.4004C21.6794 14.4004 22.3958 13.684 22.3958 12.8003C22.3958 11.9167 21.6794 11.2003 20.7957 11.2003C19.912 11.2003 19.1957 11.9167 19.1957 12.8003C19.1957 13.684 19.912 14.4004 20.7957 14.4004Z" stroke="#06B2D3" stroke-width="1.60005" stroke-linecap="round" stroke-linejoin="round"/>
<path d="M22.3958 20.8006C23.2794 20.8006 23.9958 20.0842 23.9958 19.2005C23.9958 18.3168 23.2794 17.6005 22.3958 17.6005C21.5121 17.6005 20.7957 18.3168 20.7957 19.2005C20.7957 20.0842 21.5121 20.8006 22.3958 20.8006Z" stroke="#06B2D3" stroke-width="1.60005" stroke-linecap="round" stroke-linejoin="round"/>
<path d="M13.5955 14.4004C14.1208 14.4004 14.641 14.5039 15.1263 14.7049C15.6116 14.9059 16.0526 15.2006 16.424 15.572C16.7955 15.9434 17.0901 16.3844 17.2911 16.8697C17.4922 17.355 17.5956 17.8752 17.5956 18.4005V21.2006C17.5954 21.8698 17.3555 22.5168 16.9195 23.0244C16.4834 23.5319 15.8799 23.8666 15.2184 23.9676C14.5569 24.0687 13.8811 23.9295 13.3133 23.5753C12.7456 23.2211 12.3235 22.6752 12.1235 22.0366C11.7821 20.9352 11.0621 20.2139 9.96341 19.8725C9.32514 19.6726 8.77951 19.2509 8.42526 18.6835C8.071 18.1162 7.93153 17.4408 8.03207 16.7796C8.13261 16.1183 8.46652 15.5149 8.97339 15.0785C9.48026 14.6421 10.1266 14.4016 10.7954 14.4004H13.5955Z" stroke="#06B2D3" stroke-width="1.60005" stroke-linecap="round" stroke-linejoin="round"/>
</svg>
